<svg xmlns="http://www.w3.org/2000/svg" viewBox="0 0 220 70" fill="none">
  <g transform="translate(8,4)">
    <path d="M28 2 C44 2 56 14 56 30 C56 46 44 58 28 58 C12 58 0 46 0 30 C0 14 12 2 28 2Z" fill="none" stroke="white" stroke-width="1" opacity="0.2"/>
    <path d="M54 22 C58 30 56 42 48 50 C40 58 28 60 18 56 C8 52 2 42 4 32" stroke="white" stroke-width="2.5" fill="none" stroke-linecap="round"/>
    <path d="M44 6 C54 12 60 24 58 36 C56 48 46 56 34 58" stroke="white" stroke-width="2" fill="none" stroke-linecap="round" opacity="0.75"/>
    <path d="M10 8 C4 16 2 26 6 36 C10 46 20 54 32 56" stroke="white" stroke-width="2" fill="none" stroke-linecap="round" opacity="0.55"/>
    <path d="M6 20 C2 28 4 40 12 48 C20 56 32 58 42 54" stroke="white" stroke-width="1.5" fill="none" stroke-linecap="round" opacity="0.4"/>
    <circle cx="28" cy="30" r="6" fill="black"/>
    <circle cx="28" cy="30" r="4" fill="none" stroke="white" stroke-width="1.2" opacity="0.5"/>
  </g>
  <text x="74" y="33" font-family="Arial Black,Arial,sans-serif" font-size="19" font-weight="900" fill="white" letter-spacing="1.5">MANNAI</text>
  <text x="74" y="51" font-family="Arial,sans-serif" font-size="10.5" font-weight="400" fill="white" letter-spacing="3.8">CORPORATION</text>
</svg>
